<svg width="608" height="608" viewBox="0 0 608 608" fill="none" xmlns="http://www.w3.org/2000/svg">
<g opacity="0.7" filter="url(#filter0_d_17_51)">
<path fill-rule="evenodd" clip-rule="evenodd" d="M304 0C469.674 0 604 134.326 604 300C604 465.674 469.674 600 304 600C138.326 600 4 465.674 4 300C4 134.326 138.326 0 304 0Z" fill="#2394E0"/>
<path fill-rule="evenodd" clip-rule="evenodd" d="M61.4219 454.98C43.7461 428.174 30.5137 398.145 22.75 365.967L75.582 391.455L75.875 407.227C75.875 413.037 66.0117 425.342 62.8379 430.029L61.4219 454.98ZM386.373 31.7383C487.057 65.1855 562.594 153.809 577.145 261.719L567.623 260.693C565.914 268.018 564.352 268.164 564.352 276.953C564.352 284.717 574.117 289.893 574.117 306.25C574.117 310.645 563.814 319.385 563.375 320.947L548.092 303.027V325.83L545.797 325.732L541.695 283.643L533.15 286.328L522.994 255.029L489.547 289.99L489.156 315.576L478.219 322.9L466.598 257.275L459.664 262.354L443.941 241.113L420.455 241.797L411.471 231.494L402.242 234.033L384.127 213.281L380.611 215.674L391.842 244.385H404.879V237.891H411.373C416.061 250.879 421.139 243.164 421.139 250.928C421.139 278.027 387.691 297.949 365.768 303.027C366.939 307.91 366.5 312.793 372.262 312.793C384.518 312.793 378.414 310.645 391.793 309.521C391.158 337.207 360.055 370.264 346.773 390.82L352.73 433.252C354.293 442.48 333.59 452.197 326.559 462.598L329.928 478.857L320.406 482.715C318.746 499.414 302.535 517.92 284.322 517.92H264.791C264.791 495.068 248.482 462.402 248.482 446.24C248.482 432.52 254.977 430.664 254.977 413.672C254.977 397.949 238.717 375.439 238.717 371.338V345.264H225.68C223.727 337.988 224.947 335.498 215.914 335.498H212.643C198.434 335.498 200.826 341.992 186.568 341.992H173.531C161.764 341.992 140.963 304.297 140.963 299.658V260.596C140.963 243.75 156.393 225.391 167.037 218.262V202.002L181.686 187.109L189.84 185.742C207.32 185.742 205.221 175.977 215.914 175.977H245.211V198.779L277.438 212.549L280.465 198.633C295.064 202.051 298.873 208.545 316.842 208.545H323.336C335.689 208.545 336.373 192.139 336.373 179.248L310.299 181.836L298.922 157.129L287.643 160.107C289.693 168.945 290.768 165.283 290.768 172.754C290.768 177.148 287.154 177.637 284.225 179.248L272.945 150.635L248.678 133.301L245.455 136.475L266.109 158.203C263.375 166.016 263.033 188.525 251.656 172.754L262.301 167.627L235.738 139.795L219.82 145.996L204.098 161.035C202.438 173.145 199.166 179.248 186.471 179.248C178.023 179.248 183.102 177.051 170.162 175.977V143.408H199.459L189.938 121.729L186.422 123.877V117.334L234.029 95.4102C233.15 88.5742 232.027 92.2363 232.027 84.7656C232.027 84.3262 235.201 78.3203 235.299 78.2227L247.604 85.8887L244.674 71.875L225.68 75.7812L222.164 58.7402C237.203 50.8301 270.357 22.9004 280.904 22.9004H290.67C300.973 22.9004 328.512 33.0566 333.004 39.1602L306.881 36.5234L326.266 52.4902L328.121 45.6543L342.574 41.6992L342.77 32.666H349.313V42.4316L386.373 31.7383Z" fill="#A1E367"/>
</g>
<defs>
<filter id="filter0_d_17_51" x="0" y="0" width="608" height="608" filterUnits="userSpaceOnUse" color-interpolation-filters="sRGB">
<feFlood flood-opacity="0" result="BackgroundImageFix"/>
<feColorMatrix in="SourceAlpha" type="matrix" values="0 0 0 0 0 0 0 0 0 0 0 0 0 0 0 0 0 0 127 0" result="hardAlpha"/>
<feOffset dy="4"/>
<feGaussianBlur stdDeviation="2"/>
<feComposite in2="hardAlpha" operator="out"/>
<feColorMatrix type="matrix" values="0 0 0 0 0 0 0 0 0 0 0 0 0 0 0 0 0 0 0.25 0"/>
<feBlend mode="normal" in2="BackgroundImageFix" result="effect1_dropShadow_17_51"/>
<feBlend mode="normal" in="SourceGraphic" in2="effect1_dropShadow_17_51" result="shape"/>
</filter>
</defs>
</svg>
